<?xml version="1.0" encoding="utf-8"?>
<!-- Generator: Adobe Illustrator 17.0.0, SVG Export Plug-In . SVG Version: 6.00 Build 0)  -->
<!DOCTYPE svg PUBLIC "-//W3C//DTD SVG 1.1//EN" "http://www.w3.org/Graphics/SVG/1.1/DTD/svg11.dtd">
<svg version="1.1" id="Capa_1" xmlns="http://www.w3.org/2000/svg" xmlns:xlink="http://www.w3.org/1999/xlink" x="0px" y="0px"
	 width="24.009px" height="24.009px" viewBox="0 0 24.009 24.009" enable-background="new 0 0 24.009 24.009" xml:space="preserve">
<g display="none">
	<g display="inline">
		<path fill="#EAC03C" d="M11.826,10.036c-0.052,0.122-0.103,0.243-0.155,0.365c-0.589,0.244-1.179,0.488-1.768,0.732
			c0.129-0.014,0.258-0.029,0.387-0.043c-0.804-0.612-1.607-1.224-2.411-1.835c0.013,0.07,0.026,0.14,0.039,0.209
			c0.383-0.941,0.766-1.882,1.149-2.823C9.007,6.685,8.946,6.729,8.885,6.774c1.01,0.13,2.02,0.261,3.03,0.391
			c0.127,0.431,0.253,0.862,0.38,1.292c-0.383,0.498-0.766,0.996-1.149,1.494c-0.25,0.069-0.501,0.138-0.751,0.207
			C9.675,9.745,8.955,9.333,8.235,8.92C8.46,8.171,8.684,7.421,8.908,6.672c0.811,0.214,1.622,0.429,2.432,0.643
			c-0.053-0.06-0.105-0.12-0.158-0.181c-0.589,1.423-1.179,2.845-1.768,4.268c0.167-0.017,0.335-0.033,0.502-0.05
			c-0.72-0.413-1.439-0.825-2.159-1.238c0.061,0.113,0.122,0.226,0.183,0.339c0-0.841,0-1.682,0-2.524
			c0.611-0.214,0.765-0.444,0.46-0.692c0.383,0.498,0.766,0.996,1.149,1.494C9.507,8.609,9.463,8.486,9.419,8.363
			c-0.084,0.642-0.168,1.284-0.252,1.926c0.062-0.135,0.123-0.27,0.185-0.405c-0.72,0.413-1.439,0.825-2.159,1.238
			c0.126-0.015,0.252-0.03,0.378-0.044c-0.589-0.244-1.179-0.488-1.768-0.732c0.103,0.081,0.205,0.162,0.308,0.243
			C5.867,9.999,5.623,9.41,5.379,8.821C5.37,8.973,5.361,9.125,5.352,9.277C5.596,8.688,5.841,8.099,6.085,7.51
			c0.383-0.109,0.766-0.218,1.149-0.327C7.732,7.566,8.23,7.949,8.728,8.332C8.656,8.185,8.583,8.038,8.511,7.891
			c0.084,0.642,0.168,1.284,0.252,1.926c0.376-1.644,2.358-2.043,3.713-1.984c1.922,0.084,2.523,0.406,3.374,2.112
			c2.014,4.041-2.412,7.895-6.267,5.861c-2.401-1.267-5.325,2.063-3.03,3.926c1.189,0.965,2.337,1.432,3.791,1.893
			c2.692,0.853,4.456-3.274,1.926-4.569c-2.024-1.037-2.972-2.2-4.369-3.953c-1.674-2.101-4.68,0.21-4.178,2.432
			c0.198,0.877,0.709,1.448,1.031,2.25c1.523-0.642,3.046-1.284,4.569-1.926C8.2,13.819,6.94,12.042,8.086,9.64
			c0.653-1.37,1.523-0.387,2.54-0.108c0.365,0.049,0.73,0.098,1.095,0.146c0.191,0.005,0.383,0.01,0.574,0.015
			c0.779,0.099,0.834,0.039,0.165-0.179c-0.244-0.589-0.488-1.179-0.732-1.768c0.126-1.21-0.682-0.201-1.262,0.154
			C9.515,8.482,8.471,9.012,7.639,9.767c-1.594,1.448-2.661,3.037-1.565,5.143c0.555,1.067,1.744,1.32,2.823,1.149
			c1.104-0.175,2.178-0.842,3.13-1.393c0.782-0.453,1.517-1.009,2.266-1.514c0.604-0.408,1.701-0.59,0.695-0.825
			c-0.498-0.383-0.996-0.766-1.494-1.149c-0.607-1.051-6.506,2.439-3.933,5.561c1.972,2.395,5.752,0.143,7.894-0.676
			c2.98-1.139,1.688-5.975-1.329-4.821c-1.022,0.391-2.01,0.859-3.031,1.25c-1.331,0.509-0.841-0.311,0.002,0.712
			c0.214,0.811,0.429,1.622,0.643,2.432c-0.152,0.956,1.374-0.156,2.094-0.544c0.722-0.389,1.522-0.889,1.932-1.637
			c0.863-1.574,0.958-3.222,0.045-4.801c-2.417-4.185-7.71,2.182-10.242,2.584c0.941,0.383,1.882,0.766,2.823,1.149
			c-0.064-0.124-0.129-0.248-0.193-0.372c0.084,0.642,0.168,1.284,0.252,1.926c0.354-0.97,2.9-1.929,3.828-2.517
			c1.221-0.774,2.254-1.807,2.409-3.295c0.374-3.58-3.779-3.004-5.698-3.886C7.626,2.697,4.853,4.84,3.448,7.789
			c-1.846,3.872-0.308,7.205,1.559,10.594c1.341,2.436,5.641,0.739,4.569-1.926c-0.296-0.736-0.859-1.489-1.031-2.25
			c-1.393,0.811-2.786,1.622-4.178,2.432c1.695,2.127,2.921,3.475,5.381,4.735c0.642-1.523,1.284-3.046,1.926-4.569
			c-0.55-0.145-1.078-0.348-1.584-0.607c-1.01,1.309-2.02,2.618-3.03,3.926c2.867,1.512,7.41,1.657,10.147-0.151
			c3.043-2.011,4.643-6.219,3.929-9.76c-0.691-3.429-2.731-6.679-6.42-7.161C12.93,2.817,11.248,2.745,9.472,3.06
			c-1.984,0.351-3.062,1.862-4.36,3.196c-2.578,2.652-0.615,6.623,3.048,5.8c3.41-0.767,2.592-6.351-0.966-5.933
			c-3.911,0.46-2.955,5.116,0.113,6.097c2.944,0.942,6.462-1.49,4.77-4.629c-0.383-0.71-1.329-1.32-2.159-1.238
			C9.75,6.369,9.582,6.386,9.415,6.402C7.219,6.62,6.141,8.944,7.647,10.67c0.053,0.06,0.105,0.12,0.158,0.181
			c0.528,0.604,1.67,0.948,2.432,0.643c2.426-0.971,4.507-5.233,0.821-6.246C7.658,4.312,6.323,8.523,8.379,10.7
			c0.712,0.754,2.151,1.03,3.03,0.391c0.061-0.044,0.122-0.089,0.183-0.133c0.979-0.713,1.375-1.619,1.149-2.823
			c-0.013-0.07-0.026-0.14-0.039-0.209C12.514,6.93,11.314,5.976,10.29,6.09C8.554,6.282,7.601,7.063,7.004,8.706
			C5.901,11.744,10.734,13.042,11.826,10.036L11.826,10.036z"/>
	</g>
</g>
<g>
	<path fill="#EABF3B" d="M12.005,22.395c2.776,0,5.384-1.081,7.347-3.043c1.961-1.964,3.043-4.572,3.043-7.347
		s-1.081-5.384-3.043-7.347c-1.964-1.961-4.572-3.043-7.347-3.043S6.621,2.696,4.657,4.657c-1.961,1.964-3.043,4.572-3.043,7.347
		s1.081,5.384,3.043,7.347C6.621,21.314,9.229,22.395,12.005,22.395z M5.575,5.575c1.718-1.718,3.999-2.663,6.429-2.663
		s4.712,0.946,6.429,2.663s2.663,3.999,2.663,6.429s-0.946,4.712-2.663,6.429s-3.999,2.663-6.429,2.663s-4.712-0.946-6.429-2.663
		s-2.663-3.999-2.663-6.429S3.86,7.293,5.575,5.575z"/>
	<path fill="#EABF3B" d="M9.386,17.2c0.006,0,0.013,0,0.021,0c0.176,0,0.346-0.072,0.469-0.199l8.117-8.442
		c0.248-0.259,0.24-0.67-0.019-0.918c-0.259-0.248-0.67-0.24-0.918,0.019l-7.617,7.922L6.33,11.909
		c-0.231-0.274-0.643-0.307-0.916-0.076c-0.274,0.231-0.307,0.643-0.076,0.916l3.571,4.222C9.03,17.111,9.204,17.2,9.386,17.2z"/>
</g>
</svg>
