<?xml version="1.0" encoding="utf-8"?>
<!-- Generator: Adobe Illustrator 17.0.0, SVG Export Plug-In . SVG Version: 6.00 Build 0)  -->
<!DOCTYPE svg PUBLIC "-//W3C//DTD SVG 1.1//EN" "http://www.w3.org/Graphics/SVG/1.1/DTD/svg11.dtd">
<svg version="1.1" id="Capa_1" xmlns="http://www.w3.org/2000/svg" xmlns:xlink="http://www.w3.org/1999/xlink" x="0px" y="0px"
	 width="583.374px" height="565.099px" viewBox="0 0 583.374 565.099" enable-background="new 0 0 583.374 565.099"
	 xml:space="preserve">
<g display="none">
	<path display="inline" fill="#6676A7" d="M591.184,210.671c-5.06-14.584-18.037-25.24-33.633-27.561l-151.796-22.562
		L339.798,23.574c-6.965-14.406-21.787-23.573-38.157-23.573c-16.311,0-31.193,9.227-38.157,23.573l-65.958,136.974L45.729,183.109
		c-15.596,2.322-28.573,12.977-33.574,27.561c-5,14.584-1.25,30.657,9.763,41.67l111.258,111.02L107.4,517.418
		c-2.619,15.537,4.107,31.074,17.263,40.181c7.262,5,15.775,7.5,24.287,7.5c7.024,0,14.049-1.726,20.359-5.119l132.331-71.255
		l132.331,71.255c6.37,3.393,13.394,5.119,20.359,5.119c8.513,0,17.025-2.56,24.287-7.501c13.156-9.108,19.882-24.645,17.263-40.181
		l-25.776-154.059l111.258-111.079C592.375,241.327,596.125,225.255,591.184,210.671L591.184,210.671z M439.983,334.727
		c-9.346,9.286-13.572,22.383-11.429,35.241l25.776,154.058l-132.331-71.195c-6.369-3.453-13.334-5.119-20.359-5.119
		c-7.024,0-13.989,1.726-20.359,5.119l-132.39,71.195l25.835-154.058c2.143-12.858-2.083-25.954-11.429-35.241L52.039,223.648
		l151.796-22.621c13.87-2.083,25.835-10.715,31.788-23.097L301.64,41.015l66.017,136.974c5.953,12.382,17.918,21.013,31.728,23.097
		l151.796,22.621L439.983,334.727L439.983,334.727z"/>
</g>
<path fill="#6676A7" d="M47.618,5.18c-6.907-6.907-18.105-6.907-25.012,0c-6.907,6.907-6.907,18.105,0,25.012l151.487,151.49
	L56.011,198.84c-5.132,0.745-9.875,3.162-13.495,6.876c-9.091,9.326-8.9,24.256,0.426,33.346l111.562,108.745l-26.336,153.55
	c-0.877,5.112-0.044,10.371,2.369,14.96c6.06,11.529,20.318,15.96,31.846,9.899l137.897-72.496l137.897,72.496
	c4.591,2.415,9.85,3.247,14.96,2.37c12.838-2.203,21.457-14.392,19.257-27.229l-4.426-25.798l85.214,85.216
	c6.907,6.907,18.106,6.907,25.013,0s6.907-18.106,0-25.013L47.618,5.18z"/>
<path fill="#6676A7" d="M448.845,345.09l-5.874,5.424L229.586,137.126l49.549-100.394c5.763-11.679,19.903-16.474,31.583-10.71
	c4.65,2.295,8.414,6.059,10.708,10.71l68.95,139.705L544.55,198.84c12.887,1.872,21.818,13.84,19.945,26.727
	c-0.745,5.131-3.162,9.876-6.876,13.496L448.845,345.09z"/>
</svg>
